<?xml version="1.0" standalone="no"?>
<!DOCTYPE svg PUBLIC "-//W3C//DTD SVG 20010904//EN"
 "http://www.w3.org/TR/2001/REC-SVG-20010904/DTD/svg10.dtd">
<svg version="1.0" xmlns="http://www.w3.org/2000/svg"
 width="512.000000pt" height="512.000000pt" viewBox="0 0 512.000000 512.000000"
 preserveAspectRatio="xMidYMid meet">
<metadata>
Created by potrace 1.14, written by Peter Selinger 2001-2017
</metadata>
<g transform="translate(0.000000,512.000000) scale(0.100000,-0.100000)"
fill="#000000" stroke="none">
<path d="M382 5109 c-55 -10 -135 -48 -189 -87 -122 -91 -136 -270 -28 -377
68 -68 109 -77 337 -73 177 3 197 5 234 25 154 82 181 292 53 407 -102 93
-262 134 -407 105z m235 -173 c95 -44 123 -98 88 -166 -23 -44 -66 -52 -248
-48 -156 3 -157 3 -184 31 -34 33 -38 94 -8 127 78 86 231 111 352 56z"/>
<path d="M1925 5105 c-145 -32 -257 -95 -349 -196 -102 -113 -166 -276 -166
-424 0 -88 60 -341 95 -402 27 -45 74 -79 124 -89 22 -5 33 -14 38 -32 10 -42
100 -167 146 -203 l43 -34 -168 -164 c-165 -161 -168 -163 -168 -130 0 55 -51
149 -109 201 -116 104 -286 110 -413 15 -33 -25 -33 -25 -103 -10 -166 36
-385 -51 -451 -178 -23 -45 -29 -130 -13 -186 17 -62 96 -143 155 -161 23 -7
95 -12 162 -12 l120 0 3 -278 4 -277 33 -67 c78 -158 246 -227 409 -167 52 20
81 44 290 252 l233 231 2 -1160 3 -1159 28 -56 c32 -66 99 -132 165 -162 72
-33 200 -31 267 5 68 35 122 92 154 158 25 52 26 65 29 234 3 173 3 179 -19
202 -30 32 -78 32 -107 1 -21 -22 -22 -33 -22 -178 0 -141 -2 -159 -22 -199
-55 -108 -187 -130 -271 -46 -18 18 -38 51 -45 73 -9 30 -12 283 -12 1027 l0
987 48 20 c26 11 291 119 590 240 390 157 555 219 583 219 80 0 147 -51 169
-128 13 -50 13 -824 0 -874 -36 -127 -187 -170 -284 -80 -51 48 -56 73 -56
289 l0 198 60 27 c44 19 63 34 70 54 19 49 -17 104 -68 104 -31 0 -715 -280
-739 -303 l-23 -20 0 -594 0 -594 25 -24 c13 -14 36 -25 50 -25 14 0 37 11 50
25 l25 24 0 554 0 554 190 77 c104 42 194 76 199 76 6 0 11 -78 13 -192 3
-188 4 -194 31 -246 l27 -54 -26 -31 c-38 -46 -54 -89 -54 -149 0 -75 15 -118
56 -166 68 -79 92 -87 312 -90 227 -4 269 5 337 73 111 111 94 290 -36 381
l-37 26 16 36 c15 33 17 90 17 507 l0 470 -27 57 c-57 122 -164 188 -301 188
-65 -1 -88 -7 -242 -69 l-170 -69 -3 171 c-1 94 0 177 2 184 4 10 81 13 365
13 465 0 416 -16 651 215 l175 172 50 -26 c46 -24 60 -26 208 -30 203 -4 252
2 318 42 72 43 109 104 116 189 10 122 -51 207 -194 275 -64 31 -87 37 -169
41 l-94 5 -22 44 c-28 55 -95 118 -156 146 -35 16 -67 22 -127 22 -136 0 -150
-8 -386 -241 l-205 -204 -103 0 c-70 0 -111 -5 -130 -15 -46 -23 -54 -66 -20
-109 20 -26 21 -26 167 -26 l147 0 100 100 c55 55 104 100 110 100 6 0 64 -54
130 -120 l120 -120 -135 -136 c-74 -74 -152 -144 -172 -155 -35 -18 -62 -19
-437 -19 l-400 0 -28 -24 -28 -24 -5 -267 -5 -267 -319 -129 c-176 -71 -321
-129 -323 -129 -1 0 -3 70 -3 155 0 152 -1 156 -25 180 -51 52 -55 49 -370
-264 -159 -159 -304 -296 -322 -305 -69 -35 -168 -9 -215 56 l-23 33 -3 388
-3 387 171 0 170 0 0 -37 c0 -31 -9 -46 -60 -99 -45 -47 -60 -69 -60 -91 0
-40 37 -73 80 -73 30 0 61 27 339 303 174 173 334 322 370 347 204 137 460
210 736 210 72 0 88 3 105 20 25 25 26 71 1 101 -18 22 -28 24 -123 27 l-103
4 3 97 c3 87 0 113 -37 256 -23 88 -38 161 -34 163 34 12 60 32 71 55 29 60
-74 257 -186 357 -142 128 -362 186 -547 145z m547 -741 c39 -149 47 -246 26
-316 -7 -25 -18 -40 -32 -43 -160 -34 -262 -70 -394 -140 l-83 -44 -37 23
c-44 27 -104 92 -127 135 -8 17 -14 31 -13 31 26 0 308 84 343 101 111 55 192
178 204 311 5 66 8 73 31 79 14 4 29 6 35 5 5 -2 27 -65 47 -142z m1522 -57
c48 -27 75 -62 86 -113 15 -65 -5 -118 -71 -188 l-58 -61 -125 125 -126 125
47 47 c86 87 170 109 247 65z m440 -231 c99 -49 124 -115 67 -178 l-29 -33
-180 0 c-99 0 -184 3 -188 8 -4 4 11 26 34 50 35 36 73 102 96 171 10 28 127
18 200 -18z m-3152 -532 c14 -8 36 -26 48 -41 l22 -28 -147 -3 c-81 -1 -150 0
-153 3 -7 7 37 53 63 68 50 27 114 27 167 1z m-406 -58 c1 -1 -1 -54 -3 -118
l-6 -118 -108 0 c-59 0 -119 4 -133 10 -28 10 -56 57 -56 94 0 74 155 153 270
138 19 -3 36 -5 36 -6z m2580 -1750 c33 -29 39 -39 39 -75 0 -31 -7 -47 -28
-68 -27 -28 -28 -28 -185 -31 -96 -2 -171 1 -194 8 -63 18 -90 103 -48 148 25
26 22 26 100 6 74 -19 136 -13 206 21 27 13 54 24 60 24 6 1 28 -14 50 -33z"/>
<path d="M4523 2965 c-208 -56 -311 -201 -261 -366 15 -51 69 -114 122 -142
37 -20 58 -22 230 -25 209 -4 252 3 316 49 113 82 131 257 37 363 -96 107
-294 161 -444 121z"/>
<path d="M1165 1976 c-106 -34 -186 -90 -226 -160 -24 -42 -29 -62 -29 -116 1
-109 45 -184 135 -226 47 -23 61 -24 253 -24 224 0 250 5 310 63 56 53 76 102
76 182 0 52 -5 80 -21 111 -38 71 -130 138 -232 168 -65 19 -209 20 -266 2z"/>
<path d="M3971 539 c-113 -22 -238 -108 -274 -188 -24 -54 -25 -141 -2 -199
23 -57 101 -126 159 -141 70 -17 382 -14 437 4 102 35 164 123 164 235 -1 110
-58 189 -179 248 -100 49 -199 62 -305 41z m235 -174 c71 -35 99 -67 99 -117
0 -33 -6 -45 -34 -70 l-33 -29 -180 3 -180 3 -24 28 c-26 30 -32 83 -14 117
14 25 92 71 149 87 63 18 155 8 217 -22z"/>
</g>
</svg>
